<svg width="10" height="12" viewBox="0 0 10 12" fill="none" xmlns="http://www.w3.org/2000/svg">
<path d="M1.87265 5.25H5.24765C5.74493 5.25 6.22184 5.05246 6.57348 4.70083C6.92511 4.34919 7.12265 3.87228 7.12265 3.375C7.12265 2.87772 6.92511 2.40081 6.57348 2.04917C6.22184 1.69754 5.74493 1.5 5.24765 1.5H1.87265V5.25ZM9.37265 8.625C9.37265 9.06821 9.28535 9.50708 9.11574 9.91656C8.94613 10.326 8.69753 10.6981 8.38414 11.0115C8.07074 11.3249 7.69868 11.5735 7.28921 11.7431C6.87973 11.9127 6.44086 12 5.99765 12H0.37265V0H5.24765C5.90837 2.76864e-05 6.55455 0.193989 7.10606 0.557834C7.65757 0.921678 8.09015 1.4394 8.35017 2.0468C8.61019 2.6542 8.6862 3.32457 8.56879 3.97477C8.45137 4.62497 8.14569 5.22641 7.68965 5.7045C8.20164 6.00097 8.62665 6.42688 8.92205 6.93948C9.21745 7.45209 9.37285 8.03337 9.37265 8.625ZM1.87265 6.75V10.5H5.99765C6.49493 10.5 6.97184 10.3025 7.32348 9.95083C7.67511 9.59919 7.87265 9.12228 7.87265 8.625C7.87265 8.12772 7.67511 7.65081 7.32348 7.29917C6.97184 6.94754 6.49493 6.75 5.99765 6.75H1.87265Z" fill="#FEF6E9"/>
</svg>
