<svg width="17" height="11" viewBox="0 0 17 11" fill="none" xmlns="http://www.w3.org/2000/svg">
<path d="M2.20498 0.444V4.63H6.78298V0.444H8.46298V11H6.78298V6.17H2.20498V11H0.524977V0.444H2.20498ZM16.8773 9.46V11H10.2693L13.6853 6.744C13.928 6.44533 14.1426 6.17467 14.3293 5.932C14.5253 5.68933 14.6886 5.46067 14.8193 5.246C14.9593 5.022 15.062 4.80267 15.1273 4.588C15.202 4.364 15.2393 4.11667 15.2393 3.846C15.2393 3.622 15.1973 3.412 15.1133 3.216C15.0386 3.02 14.9266 2.852 14.7773 2.712C14.6373 2.572 14.4693 2.46 14.2733 2.376C14.0773 2.292 13.8673 2.25 13.6433 2.25C13.186 2.25 12.8033 2.404 12.4953 2.712C12.1966 3.01067 12.0473 3.38867 12.0473 3.846V4.042H10.3393L10.3533 3.846C10.3533 3.41667 10.4373 3.01067 10.6053 2.628C10.7733 2.24533 11.002 1.90933 11.2913 1.62C11.59 1.33067 11.94 1.10667 12.3413 0.947999C12.7426 0.779999 13.1766 0.695999 13.6433 0.695999C14.11 0.695999 14.544 0.779999 14.9453 0.947999C15.3466 1.10667 15.692 1.33067 15.9813 1.62C16.28 1.90933 16.5133 2.24533 16.6813 2.628C16.8493 3.01067 16.9333 3.41667 16.9333 3.846C16.9333 4.20067 16.896 4.518 16.8213 4.798C16.7466 5.078 16.6253 5.358 16.4573 5.638C16.2986 5.918 16.0886 6.226 15.8273 6.562C15.5753 6.88867 15.2673 7.276 14.9033 7.724L13.4893 9.46H16.8773Z" fill="#FEF6E9"/>
</svg>
