<svg width="17" height="12" viewBox="0 0 17 12" fill="none" xmlns="http://www.w3.org/2000/svg">
<path d="M2.19814 0.444V4.63H6.77614V0.444H8.45614V11H6.77614V6.17H2.19814V11H0.518141V0.444H2.19814ZM15.6805 5.736C16.0818 6.00667 16.3991 6.352 16.6325 6.772C16.8658 7.18267 16.9825 7.64 16.9825 8.144C16.9825 8.564 16.8985 8.96067 16.7305 9.334C16.5625 9.70733 16.3291 10.0293 16.0305 10.3C15.7411 10.5707 15.3911 10.7853 14.9805 10.944C14.5791 11.1027 14.1451 11.182 13.6785 11.182C13.2118 11.182 12.7731 11.1027 12.3625 10.944C11.9611 10.7853 11.6111 10.566 11.3125 10.286C11.0231 10.006 10.7945 9.67933 10.6265 9.306C10.4585 8.92333 10.3745 8.51267 10.3745 8.074H12.0685C12.0685 8.298 12.1058 8.508 12.1805 8.704C12.2645 8.89067 12.3765 9.054 12.5165 9.194C12.6658 9.32467 12.8385 9.432 13.0345 9.516C13.2305 9.59067 13.4451 9.628 13.6785 9.628C13.9118 9.628 14.1265 9.59067 14.3225 9.516C14.5185 9.432 14.6865 9.32467 14.8265 9.194C14.9758 9.054 15.0878 8.89067 15.1625 8.704C15.2465 8.508 15.2885 8.298 15.2885 8.074C15.2885 7.85933 15.2465 7.65867 15.1625 7.472C15.0878 7.276 14.9851 7.11267 14.8545 6.982C14.7051 6.83267 14.5231 6.72067 14.3085 6.646C14.1031 6.562 13.8465 6.52 13.5385 6.52H13.4265V5.036H13.5385C13.8278 5.036 14.0658 4.99867 14.2525 4.924C14.4391 4.84933 14.6025 4.742 14.7425 4.602C14.9851 4.35933 15.1158 4.03733 15.1345 3.636C15.1345 3.23467 14.9945 2.90333 14.7145 2.642C14.4438 2.37133 14.0985 2.236 13.6785 2.236C13.2585 2.236 12.9085 2.37133 12.6285 2.642C12.3578 2.90333 12.2225 3.23467 12.2225 3.636H10.5285C10.5285 3.22533 10.6078 2.84267 10.7665 2.488C10.9345 2.124 11.1585 1.81133 11.4385 1.55C11.7185 1.27933 12.0498 1.06933 12.4325 0.92C12.8151 0.761333 13.2305 0.681999 13.6785 0.681999C14.1265 0.681999 14.5418 0.756666 14.9245 0.906C15.3071 1.05533 15.6385 1.26067 15.9185 1.522C16.1985 1.78333 16.4178 2.09133 16.5765 2.446C16.7445 2.79133 16.8285 3.16467 16.8285 3.566C16.8285 4.014 16.7258 4.42467 16.5205 4.798C16.3151 5.17133 16.0351 5.484 15.6805 5.736Z" fill="#FEF6E9"/>
</svg>
