<svg width="14" height="14" viewBox="0 0 14 14" fill="none" xmlns="http://www.w3.org/2000/svg">
<path d="M11.1153 9.35734L10.1727 8.41334L11.1153 7.47067C11.4271 7.16164 11.6747 6.79407 11.844 6.38907C12.0134 5.98407 12.101 5.54962 12.102 5.11065C12.1029 4.67168 12.0172 4.23685 11.8496 3.83111C11.6821 3.42538 11.4361 3.05673 11.1257 2.74633C10.8153 2.43593 10.4466 2.1899 10.0409 2.02236C9.63514 1.85482 9.20031 1.76907 8.76134 1.77003C8.32238 1.77099 7.88792 1.85864 7.48292 2.02796C7.07792 2.19728 6.71035 2.44492 6.40132 2.75667L5.45865 3.70001L4.51532 2.75734L5.45932 1.81467C6.33453 0.93946 7.52158 0.447769 8.75932 0.447769C9.99706 0.447769 11.1841 0.93946 12.0593 1.81467C12.9345 2.68989 13.4262 3.87693 13.4262 5.11467C13.4262 6.35241 12.9345 7.53946 12.0593 8.41467L11.116 9.35734H11.1153ZM9.22999 11.2427L8.28665 12.1853C7.41144 13.0606 6.22439 13.5522 4.98665 13.5522C3.74891 13.5522 2.56187 13.0606 1.68665 12.1853C0.811438 11.3101 0.319748 10.1231 0.319748 8.88534C0.319748 7.6476 0.811438 6.46056 1.68665 5.58534L2.62999 4.64267L3.57265 5.58667L2.62999 6.52934C2.31823 6.83838 2.07059 7.20594 1.90127 7.61094C1.73195 8.01594 1.6443 8.4504 1.64334 8.88936C1.64238 9.32833 1.72813 9.76317 1.89567 10.1689C2.06321 10.5746 2.30924 10.9433 2.61964 11.2537C2.93004 11.5641 3.29869 11.8101 3.70442 11.9777C4.11016 12.1452 4.545 12.231 4.98396 12.23C5.42293 12.229 5.85738 12.1414 6.26238 11.9721C6.66738 11.8027 7.03495 11.5551 7.34399 11.2433L8.28665 10.3007L9.22999 11.2433V11.2427ZM8.75799 4.17134L9.70132 5.11467L4.98732 9.82801L4.04399 8.88534L8.75799 4.17201V4.17134Z" fill="#FEF6E9"/>
</svg>
